<?xml version="1.0" encoding="UTF-8" standalone="no"?>
<!-- Created with Inkscape (http://www.inkscape.org/) -->

<svg
   version="1.1"
   id="svg1"
   width="1024"
   height="1024"
   viewBox="0 0 1024 1024"
   xmlns="http://www.w3.org/2000/svg"
   xmlns:svg="http://www.w3.org/2000/svg">
  <defs
     id="defs1" />
  <g
     id="g1">
    <path
       style="display:inline;fill:#000000;stroke-width:1.38524"
       d="m 390.18359,1018.7045 c 8.53019,-0.1879 33.76968,-22.9346 86.77124,-78.20091 25.66644,-26.76315 54.79311,-57.07567 64.72591,-67.36112 9.93281,-10.28545 38.51787,-40.05094 63.5224,-66.14552 25.00451,-26.09459 45.7491,-47.4447 46.09907,-47.4447 0.34998,0 0.20742,3.896 -0.3168,8.65778 -1.11246,10.10516 6.00317,1.5544 -71.12382,85.46875 -48.75601,53.04668 -57.9667,62.92665 -121.00978,129.80271 -18.06532,19.16371 -32.84623,35.05941 -32.84645,35.32381 -2.3e-4,0.2644 27.50247,0.312 61.1171,0.1058 l 61.1175,-0.3749 5.80941,-5.1661 c 3.19521,-2.8413 22.60042,-20.45318 43.12273,-39.13737 20.5223,-18.68425 45.72865,-41.43345 56.0141,-50.55384 10.28546,-9.12039 39.27233,-34.97513 64.41528,-57.45498 25.14293,-22.47985 50.15151,-44.78661 55.57461,-49.57057 8.30639,-7.32745 10.1997,-9.83777 12.01482,-15.93034 1.18503,-3.97772 4.40779,-14.71255 7.16166,-23.85518 9.98112,-33.13646 22.04558,-85.55113 23.7541,-103.20086 l 0.73751,-7.61886 -38.96052,-58.74539 c -21.42829,-32.30996 -38.39362,-59.11447 -37.70073,-59.5656 0.69286,-0.45111 6.18063,-4.03168 12.19506,-7.95678 l 10.93532,-7.13663 49.17625,-4.90817 c 27.04693,-2.6995 56.53155,-5.31756 65.52136,-5.81789 8.9898,-0.50033 16.15846,-1.43935 15.93035,-2.08669 -1.47127,-4.17497 -21.08537,-26.42906 -29.31132,-33.2565 -14.03504,-11.64896 -27.35585,-17.54858 -65.73771,-29.1144 l -33.68338,-10.15 -7.87402,4.49367 c -4.3307,2.4715 -12.38812,6.78384 -17.90537,9.58293 -9.85943,5.00204 -10.06881,5.22069 -12.21496,12.75645 -4.51289,15.84609 -18.09881,30.59846 -32.6213,35.42205 -10.49215,3.48493 -24.83769,2.29428 -34.28069,-2.84526 -20.48491,-11.14928 -30.58924,-35.29959 -24.57861,-58.74522 1.25508,-4.89564 1.79927,-9.33309 1.20935,-9.86101 -0.58998,-0.5279 -17.44008,-9.70746 -37.4447,-20.39901 l -36.37209,-19.43915 -6.06037,7.13622 c -16.45568,19.37692 -21.43821,30.88338 -35.54622,82.08913 -13.85257,50.2786 -34.81015,124.32773 -59.94224,211.79312 -11.82159,41.14181 -27.82999,97.55601 -35.5742,125.36482 -7.74422,27.80882 -20.96271,75.18424 -29.37443,105.27874 -19.58607,70.07287 -24.49917,88.34277 -23.91433,88.92757 0.26018,0.2602 3.16253,0.3555 6.44968,0.2117 3.28715,-0.1436 8.2458,-0.3113 11.01923,-0.3723 z m 77.39772,-396.27813 c 6.84698,-23.84503 12.44907,-44.15216 12.44907,-45.12698 0,-0.9748 -1.4761,-3.53445 -3.28024,-5.68807 -1.80416,-2.15365 -20.28607,-26.98008 -41.07096,-55.16984 -20.78487,-28.18978 -42.0925,-56.96915 -47.3503,-63.95415 l -9.55959,-12.70002 0.41536,-8.66724 0.41535,-8.66722 10.38935,13.55998 c 5.71415,7.45797 15.09688,19.56667 20.85051,26.90824 5.75364,7.34154 24.3757,31.42573 41.38239,53.52041 17.00667,22.09468 31.39188,40.68872 31.96712,41.3201 1.20997,1.328 2.50549,-2.87971 18.69275,-60.71356 6.61065,-23.61845 13.23067,-47.12407 14.71117,-52.23471 3.72475,-12.85776 13.4775,-31.68478 22.77281,-43.96143 6.40435,-8.45845 7.45348,-10.57384 5.83977,-11.77461 -1.08192,-0.80504 -24.20603,-21.34179 -51.38688,-45.63719 -48.59255,-43.43407 -49.41977,-44.26181 -49.41977,-49.45119 0,-3.73085 1.03059,-6.38974 3.51618,-9.07175 2.7924,-3.01306 3.32829,-4.64945 2.60341,-7.94979 -0.50201,-2.28565 -2.12169,-5.13469 -3.5993,-6.33119 -3.98934,-3.23038 -3.65998,-10.09615 0.73489,-15.31916 4.58877,-5.45346 4.64686,-9.16182 0.20793,-13.27566 -4.27552,-3.96244 -4.72237,-11.77928 -0.89229,-15.60937 4.20105,-4.20103 4.50708,-9.47837 0.69452,-11.97644 -4.21175,-2.75966 -4.47916,-10.24451 -0.49485,-13.85027 3.28611,-2.97389 3.81687,-11.46002 0.78943,-12.62176 -1.08961,-0.41812 -2.63701,-2.64182 -3.4387,-4.94158 -1.54447,-4.43041 -0.18161,-8.74118 3.65951,-11.57504 3.08411,-2.27539 3.2546,-11.49288 0.25146,-13.59636 -6.03649,-4.22813 -6.00369,-14.24428 0.0572,-17.488 2.11384,-1.13129 2.83682,-2.89389 2.83682,-6.91613 0,-4.41662 -0.75552,-5.93588 -4.15575,-8.35707 -2.28565,-1.62752 -4.15574,-3.85174 -4.15574,-4.94269 2e-5,-1.16379 -1.35804,-1.98355 -3.28603,-1.98355 -2.72592,0 -3.42783,0.88553 -4.11764,5.19468 -2.35546,14.71459 -14.31984,29.7841 -29.67029,37.37071 -10.10905,4.99616 -11.18472,5.22563 -24.49765,5.22563 -12.27564,0 -14.88146,-0.44843 -22.00845,-3.78727 -11.20539,-5.2495 -17.83768,-10.85336 -24.30182,-20.53346 -19.06699,-28.55305 -7.93389,-68.783109 23.10383,-83.486913 8.59344,-4.071062 10.36131,-4.397333 23.82723,-4.397333 12.78065,0 15.46931,0.436426 22.16393,3.597691 16.4664,7.775597 30.21725,25.822977 32.53933,42.706405 1.11996,8.14309 2.42839,8.59613 9.9955,3.46091 3.8959,-2.64386 6.33171,-3.36124 9.41194,-2.77198 10.37277,1.98436 13.94858,15.03381 6.2336,22.74881 -5.46123,5.46121 -5.67816,12.54898 -0.56989,18.61979 4.15868,4.94234 3.8179,11.20575 -0.81953,15.06128 -1.84698,1.53558 -2.76632,3.99378 -2.76632,7.39681 0,3.40304 0.91934,5.86123 2.76632,7.39681 1.52146,1.26496 3.14954,4.28452 3.61792,6.71015 0.68949,3.57087 0.16301,5.09879 -2.76633,8.02813 -4.6067,4.60669 -4.65652,10.08027 -0.1309,14.37304 4.34869,4.12493 4.34272,7.226 -0.0239,12.41549 -4.38257,5.20839 -4.38257,8.90399 0,13.28655 1.9047,1.9047 3.46311,5.00203 3.46311,6.88291 0,1.8809 -1.55841,5.27187 -3.46311,7.53548 -4.18208,4.97008 -4.49809,11.21799 -0.7306,14.4438 3.99105,3.41723 4.91852,8.73811 2.23662,12.83124 -1.24431,1.89915 -2.87142,3.45301 -3.61575,3.45301 -0.74431,0 -1.35331,2.46512 -1.35331,5.47803 0,3.99623 0.93676,6.41478 3.46311,8.94113 1.90472,1.90472 3.46311,4.69279 3.46311,6.19572 0,1.50294 2.09163,4.49224 4.64806,6.6429 2.55644,2.15064 23.44967,20.93549 46.42942,41.74408 30.69258,27.79271 42.41845,37.61524 44.18188,37.01023 1.32028,-0.45298 4.76865,-2.85473 7.66298,-5.33724 l 5.26245,-4.51364 -2.92572,-13.10313 C 567.75091,338.49521 547.63224,245.6106 530.49345,165.9741 523.27888,132.45113 516.10492,101.03819 514.55133,96.167595 501.77901,56.125736 469.18522,24.040031 429.91354,12.849192 414.2417,8.3833367 390.06882,7.7258857 372.86034,11.297439 c -39.70096,8.239764 -72.34169,37.511544 -85.2044,76.410229 l -2.97744,9.004107 -25.26469,6.772995 c -55.48756,14.87516 -64.11938,18.79892 -84.92518,38.60428 -11.18105,10.64341 -24.14693,25.49368 -24.14693,27.65633 0,0.40969 7.32448,1.1661 16.27665,1.68093 8.95215,0.51481 26.25043,2.1069 38.44059,3.53797 12.19017,1.43109 35.1183,4.00058 50.95141,5.71001 l 28.78747,3.10807 11.7414,8.16956 c 7.74026,5.38565 11.38379,8.73693 10.69204,9.83448 -6.43217,10.20553 -79.96258,116.6978 -82.9438,120.1255 -3.65247,4.19941 4.0317,55.66087 16.11923,107.95166 3.7865,16.38055 7.43521,31.65289 8.10821,33.93854 1.21799,4.13661 5.03185,8.02737 63.20802,64.48261 58.22329,56.50093 74.84481,72.71448 107.73058,105.08624 18.8719,18.57691 34.6199,33.4688 34.99561,33.09312 0.3757,-0.37572 6.28518,-20.19268 13.1322,-44.0377 z M 743.35293,444.9074 c 8.3535,-4.67795 15.52907,-9.05698 15.94575,-9.73117 1.22351,-1.97967 -8.57402,-20.45136 -16.30808,-30.74637 -22.98713,-30.59875 -64.9129,-48.35569 -103.38516,-43.78705 -16.55121,1.96549 -35.24238,7.86446 -48.06271,15.16865 -10.05599,5.72925 -18.37053,11.9588 -17.26144,12.93286 0.35118,0.30843 13.72906,7.58173 29.72866,16.16289 15.99961,8.58115 32.06051,17.39511 35.69092,19.5866 4.76348,2.87546 8.42639,3.9931 13.15982,4.0154 4.84674,0.0227 15.0578,3.25527 39.11242,12.38156 17.90431,6.79288 33.37193,12.38922 34.37251,12.43635 1.00053,0.0471 8.65385,-3.74176 17.00731,-8.41972 z M 400.85691,148.79257 c 3.31057,-1.70249 8.6836,-5.75983 11.94009,-9.01633 15.68737,-15.68737 15.81541,-43.763435 0.27433,-60.151635 -8.16403,-8.609053 -15.30852,-11.762573 -28.17926,-12.438114 -10.83324,-0.568605 -12.16598,-0.322626 -20.51066,3.785443 -13.54069,6.66607 -21.93054,18.596717 -23.70709,33.712306 -2.3942,20.37097 8.8028,38.6769 28.20749,46.11623 7.68628,2.94674 24.37888,1.89853 31.9751,-2.0079 z m 57.96607,-32.87563 c 0.92557,-2.41195 -0.87773,-6.24993 -3.3189,-7.06366 -0.8095,-0.26983 -2.47797,0.51555 -3.70772,1.7453 -1.69572,1.69572 -1.89012,2.88203 -0.80467,4.91022 1.746,3.26241 6.63818,3.51738 7.83129,0.40814 z"
       id="path1" />
  </g>
</svg>
